<?xml version="1.0" encoding="UTF-8" standalone="no"?>
<!DOCTYPE svg PUBLIC "-//W3C//DTD SVG 1.1//EN"
 "http://www.w3.org/Graphics/SVG/1.1/DTD/svg11.dtd">
<!-- Generated by graphviz version 2.26.3 (20100126.1600)
 -->
<!-- Title: models_diagram Pages: 1 -->
<svg width="4142pt" height="498pt"
 viewBox="0.00 0.00 4142.00 498.00" xmlns="http://www.w3.org/2000/svg" xmlns:xlink="http://www.w3.org/1999/xlink">
<g id="graph1" class="graph" transform="scale(1 1) rotate(0) translate(4 494)">
<title>models_diagram</title>
<polygon fill="white" stroke="white" points="-4,5 -4,-494 4139,-494 4139,5 -4,5"/>
<!-- _diagram_info -->
<g id="node1" class="node"><title>_diagram_info</title>
<text text-anchor="start" x="514" y="-473.8" font-family="Times Roman,serif" font-size="13.00">Models diagram</text>
<text text-anchor="start" x="514" y="-456.8" font-family="Times Roman,serif" font-size="13.00">Date: Nov 05 2012 &#45; 18:27</text>
<text text-anchor="start" x="514" y="-439.8" font-family="Times Roman,serif" font-size="13.00">Migration version: 20121102165552</text>
<text text-anchor="start" x="514" y="-422.8" font-family="Times Roman,serif" font-size="13.00">Generated by RailRoady 1.1.0</text>
<text text-anchor="start" x="514" y="-405.8" font-family="Times Roman,serif" font-size="13.00">http://railroady.prestonlee.com</text>
</g>
<!-- Borough -->
<g id="node2" class="node"><title>Borough</title>
<ellipse fill="none" stroke="black" cx="733" cy="-95" rx="53.033" ry="18.3848"/>
<text text-anchor="middle" x="733" y="-91.4" font-family="Times Roman,serif" font-size="14.00">Borough</text>
</g>
<!-- Gallery -->
<g id="node3" class="node"><title>Gallery</title>
<ellipse fill="none" stroke="black" cx="3196" cy="-171" rx="46.1672" ry="18.3848"/>
<text text-anchor="middle" x="3196" y="-167.4" font-family="Times Roman,serif" font-size="14.00">Gallery</text>
</g>
<!-- GalleryAsset -->
<g id="node34" class="node"><title>GalleryAsset</title>
<ellipse fill="none" stroke="black" cx="3417" cy="-95" rx="73.0388" ry="18.3848"/>
<text text-anchor="middle" x="3417" y="-91.4" font-family="Times Roman,serif" font-size="14.00">GalleryAsset</text>
</g>
<!-- Gallery&#45;&gt;GalleryAsset -->
<g id="edge2" class="edge"><title>Gallery&#45;&gt;GalleryAsset</title>
<path fill="none" stroke="#25e44e" d="M3238.49,-156.314C3242.71,-154.856 3246.94,-153.398 3251,-152 3288.6,-139.051 3331,-124.492 3363.54,-113.329"/>
<ellipse fill="none" stroke="#25e44e" cx="3234.69" cy="-157.624" rx="4.00001" ry="4.00001"/>
<polygon fill="#25e44e" stroke="#25e44e" points="3363.84,-113.224 3374.76,-114.236 3368.57,-111.602 3373.3,-109.979 3373.3,-109.979 3373.3,-109.979 3368.57,-111.602 3371.84,-105.723 3363.84,-113.224 3363.84,-113.224"/>
</g>
<!-- Asset -->
<g id="node44" class="node"><title>Asset</title>
<ellipse fill="none" stroke="black" cx="3288" cy="-95" rx="38.1838" ry="18.3848"/>
<text text-anchor="middle" x="3288" y="-91.4" font-family="Times Roman,serif" font-size="14.00">Asset</text>
</g>
<!-- Gallery&#45;&gt;Asset -->
<g id="edge4" class="edge"><title>Gallery&#45;&gt;Asset</title>
<path fill="none" stroke="#ddb170" d="M3224.49,-147.466C3236.01,-137.948 3249.25,-127.007 3260.66,-117.587"/>
<polygon fill="#ddb170" stroke="#ddb170" points="3224.13,-147.764 3213.55,-150.664 3220.27,-150.949 3216.42,-154.133 3216.42,-154.133 3216.42,-154.133 3220.27,-150.949 3219.28,-157.602 3224.13,-147.764 3224.13,-147.764"/>
<polygon fill="#ddb170" stroke="#ddb170" points="3260.87,-117.408 3271.45,-114.509 3264.73,-114.224 3268.58,-111.039 3268.58,-111.039 3268.58,-111.039 3264.73,-114.224 3265.72,-107.57 3260.87,-117.408 3260.87,-117.408"/>
</g>
<!-- Language -->
<g id="node4" class="node"><title>Language</title>
<ellipse fill="none" stroke="black" cx="2027" cy="-95" rx="58.8978" ry="18.3848"/>
<text text-anchor="middle" x="2027" y="-91.4" font-family="Times Roman,serif" font-size="14.00">Language</text>
</g>
<!-- SearchForm -->
<g id="node5" class="node"><title>SearchForm</title>
<polygon fill="none" stroke="black" points="994,-461 896,-461 896,-425 994,-425 994,-461"/>
<text text-anchor="middle" x="945" y="-439.4" font-family="Times Roman,serif" font-size="14.00">SearchForm</text>
</g>
<!-- PromoConnection -->
<g id="node6" class="node"><title>PromoConnection</title>
<ellipse fill="none" stroke="black" cx="251" cy="-171" rx="97.7889" ry="18.3848"/>
<text text-anchor="middle" x="251" y="-167.4" font-family="Times Roman,serif" font-size="14.00">PromoConnection</text>
</g>
<!-- UserSettings -->
<g id="node7" class="node"><title>UserSettings</title>
<ellipse fill="none" stroke="black" cx="3058" cy="-171" rx="74.2462" ry="18.3848"/>
<text text-anchor="middle" x="3058" y="-167.4" font-family="Times Roman,serif" font-size="14.00">UserSettings</text>
</g>
<!-- GlossaryImport -->
<g id="node8" class="node"><title>GlossaryImport</title>
<ellipse fill="none" stroke="black" cx="1098" cy="-443" rx="85.7684" ry="18.3848"/>
<text text-anchor="middle" x="1098" y="-439.4" font-family="Times Roman,serif" font-size="14.00">GlossaryImport</text>
</g>
<!-- ResourceSuggestion -->
<g id="node9" class="node"><title>ResourceSuggestion</title>
<ellipse fill="none" stroke="black" cx="3369" cy="-171" rx="109.101" ry="18.3848"/>
<text text-anchor="middle" x="3369" y="-167.4" font-family="Times Roman,serif" font-size="14.00">ResourceSuggestion</text>
</g>
<!-- Event -->
<g id="node10" class="node"><title>Event</title>
<ellipse fill="none" stroke="black" cx="727" cy="-171" rx="39.8075" ry="18.3848"/>
<text text-anchor="middle" x="727" y="-167.4" font-family="Times Roman,serif" font-size="14.00">Event</text>
</g>
<!-- Event&#45;&gt;Borough -->
<g id="edge8" class="edge"><title>Event&#45;&gt;Borough</title>
<path fill="none" stroke="#834397" d="M729.27,-142.244C729.744,-136.24 730.244,-129.908 730.719,-123.898"/>
<polygon fill="#834397" stroke="#834397" points="729.27,-142.244 723.997,-151.859 728.877,-147.229 728.483,-152.213 728.483,-152.213 728.483,-152.213 728.877,-147.229 732.969,-152.568 729.27,-142.244 729.27,-142.244"/>
<polygon fill="#834397" stroke="#834397" points="730.747,-123.539 736.02,-113.925 731.14,-118.555 731.534,-113.57 731.534,-113.57 731.534,-113.57 731.14,-118.555 727.048,-113.216 730.747,-123.539 730.747,-123.539"/>
</g>
<!-- Comment -->
<g id="node38" class="node"><title>Comment</title>
<ellipse fill="none" stroke="black" cx="862" cy="-95" rx="58.1882" ry="18.3848"/>
<text text-anchor="middle" x="862" y="-91.4" font-family="Times Roman,serif" font-size="14.00">Comment</text>
</g>
<!-- Event&#45;&gt;Comment -->
<g id="edge14" class="edge"><title>Event&#45;&gt;Comment</title>
<path fill="none" stroke="#8c2a58" d="M759.395,-152.763C778.907,-141.778 803.841,-127.741 824.244,-116.255"/>
<ellipse fill="none" stroke="#8c2a58" cx="755.878" cy="-154.743" rx="4.00002" ry="4.00002"/>
<polygon fill="#8c2a58" stroke="#8c2a58" points="824.258,-116.248 835.179,-115.263 828.615,-113.795 832.972,-111.342 832.972,-111.342 832.972,-111.342 828.615,-113.795 830.764,-107.421 824.258,-116.248 824.258,-116.248"/>
</g>
<!-- SubwayLine -->
<g id="node40" class="node"><title>SubwayLine</title>
<ellipse fill="none" stroke="black" cx="591" cy="-95" rx="70.9184" ry="18.3848"/>
<text text-anchor="middle" x="591" y="-91.4" font-family="Times Roman,serif" font-size="14.00">SubwayLine</text>
</g>
<!-- Event&#45;&gt;SubwayLine -->
<g id="edge12" class="edge"><title>Event&#45;&gt;SubwayLine</title>
<path fill="none" stroke="#3d5cf7" d="M692.422,-151.677C673.37,-141.03 649.659,-127.78 629.955,-116.769"/>
<polygon fill="#3d5cf7" stroke="#3d5cf7" points="692.69,-151.827 699.224,-160.633 697.055,-154.266 701.419,-156.705 701.419,-156.705 701.419,-156.705 697.055,-154.266 703.615,-152.777 692.69,-151.827 692.69,-151.827"/>
<polygon fill="#3d5cf7" stroke="#3d5cf7" points="629.944,-116.763 623.41,-107.956 625.579,-114.324 621.214,-111.885 621.214,-111.885 621.214,-111.885 625.579,-114.324 619.019,-115.813 629.944,-116.763 629.944,-116.763"/>
</g>
<!-- EventSubwayLine -->
<g id="node43" class="node"><title>EventSubwayLine</title>
<ellipse fill="none" stroke="black" cx="220" cy="-95" rx="99.9096" ry="18.3848"/>
<text text-anchor="middle" x="220" y="-91.4" font-family="Times Roman,serif" font-size="14.00">EventSubwayLine</text>
</g>
<!-- Event&#45;&gt;EventSubwayLine -->
<g id="edge10" class="edge"><title>Event&#45;&gt;EventSubwayLine</title>
<path fill="none" stroke="#d02c25" d="M690.165,-155.546C686.107,-154.196 681.997,-152.975 678,-152 526.414,-115.036 483.49,-135.852 329,-114 319.991,-112.726 310.584,-111.272 301.235,-109.75"/>
<ellipse fill="none" stroke="#d02c25" cx="694.091" cy="-156.936" rx="4.00001" ry="4.00001"/>
<polygon fill="#d02c25" stroke="#d02c25" points="301,-109.711 291.87,-103.637 296.067,-108.894 291.135,-108.076 291.135,-108.076 291.135,-108.076 296.067,-108.894 290.399,-112.516 301,-109.711 301,-109.711"/>
</g>
<!-- EventBorough -->
<g id="node45" class="node"><title>EventBorough</title>
<ellipse fill="none" stroke="black" cx="420" cy="-95" rx="82.0244" ry="18.3848"/>
<text text-anchor="middle" x="420" y="-91.4" font-family="Times Roman,serif" font-size="14.00">EventBorough</text>
</g>
<!-- Event&#45;&gt;EventBorough -->
<g id="edge6" class="edge"><title>Event&#45;&gt;EventBorough</title>
<path fill="none" stroke="#e165ea" d="M689.415,-155.763C685.587,-154.411 681.734,-153.129 678,-152 660.083,-146.582 560.131,-124.901 490.038,-109.898"/>
<ellipse fill="none" stroke="#e165ea" cx="693.437" cy="-157.235" rx="4.00001" ry="4.00001"/>
<polygon fill="#e165ea" stroke="#e165ea" points="489.705,-109.827 480.867,-103.335 484.815,-108.781 479.926,-107.736 479.926,-107.736 479.926,-107.736 484.815,-108.781 478.985,-112.136 489.705,-109.827 489.705,-109.827"/>
</g>
<!-- ResourceSubwayLine -->
<g id="node11" class="node"><title>ResourceSubwayLine</title>
<ellipse fill="none" stroke="black" cx="2220" cy="-95" rx="115.966" ry="18.3848"/>
<text text-anchor="middle" x="2220" y="-91.4" font-family="Times Roman,serif" font-size="14.00">ResourceSubwayLine</text>
</g>
<!-- ForumThread -->
<g id="node12" class="node"><title>ForumThread</title>
<ellipse fill="none" stroke="black" cx="862" cy="-171" rx="77.0746" ry="18.3848"/>
<text text-anchor="middle" x="862" y="-167.4" font-family="Times Roman,serif" font-size="14.00">ForumThread</text>
</g>
<!-- ForumThread&#45;&gt;Comment -->
<g id="edge18" class="edge"><title>ForumThread&#45;&gt;Comment</title>
<path fill="none" stroke="#866f5f" d="M862,-144.073C862,-137.449 862,-130.332 862,-123.63"/>
<ellipse fill="none" stroke="#866f5f" cx="862" cy="-148.213" rx="4" ry="4"/>
<polygon fill="#866f5f" stroke="#866f5f" points="862,-123.57 866.5,-113.57 862,-118.57 862,-113.57 862,-113.57 862,-113.57 862,-118.57 857.5,-113.57 862,-123.57 862,-123.57"/>
</g>
<!-- ResourceBorough -->
<g id="node13" class="node"><title>ResourceBorough</title>
<ellipse fill="none" stroke="black" cx="2451" cy="-95" rx="96.8736" ry="18.3848"/>
<text text-anchor="middle" x="2451" y="-91.4" font-family="Times Roman,serif" font-size="14.00">ResourceBorough</text>
</g>
<!-- ConditionsOfUse -->
<g id="node14" class="node"><title>ConditionsOfUse</title>
<ellipse fill="none" stroke="black" cx="1294" cy="-443" rx="92.1303" ry="18.3848"/>
<text text-anchor="middle" x="1294" y="-439.4" font-family="Times Roman,serif" font-size="14.00">ConditionsOfUse</text>
</g>
<!-- PageAsset -->
<g id="node15" class="node"><title>PageAsset</title>
<ellipse fill="none" stroke="black" cx="1465" cy="-443" rx="61.0181" ry="18.3848"/>
<text text-anchor="middle" x="1465" y="-439.4" font-family="Times Roman,serif" font-size="14.00">PageAsset</text>
</g>
<!-- Newsletter -->
<g id="node16" class="node"><title>Newsletter</title>
<ellipse fill="none" stroke="black" cx="3562" cy="-171" rx="65.7609" ry="18.3848"/>
<text text-anchor="middle" x="3562" y="-167.4" font-family="Times Roman,serif" font-size="14.00">Newsletter</text>
</g>
<!-- SystemAvatar -->
<g id="node17" class="node"><title>SystemAvatar</title>
<ellipse fill="none" stroke="black" cx="1624" cy="-443" rx="79.9031" ry="18.3848"/>
<text text-anchor="middle" x="1624" y="-439.4" font-family="Times Roman,serif" font-size="14.00">SystemAvatar</text>
</g>
<!-- Support -->
<g id="node18" class="node"><title>Support</title>
<ellipse fill="none" stroke="black" cx="2616" cy="-95" rx="50.2046" ry="18.3848"/>
<text text-anchor="middle" x="2616" y="-91.4" font-family="Times Roman,serif" font-size="14.00">Support</text>
</g>
<!-- Ability -->
<g id="node19" class="node"><title>Ability</title>
<polygon fill="none" stroke="black" points="1782,-461 1722,-461 1722,-425 1782,-425 1782,-461"/>
<text text-anchor="middle" x="1752" y="-439.4" font-family="Times Roman,serif" font-size="14.00">Ability</text>
</g>
<!-- ResourceLanguage -->
<g id="node20" class="node"><title>ResourceLanguage</title>
<ellipse fill="none" stroke="black" cx="2787" cy="-95" rx="103.238" ry="18.3848"/>
<text text-anchor="middle" x="2787" y="-91.4" font-family="Times Roman,serif" font-size="14.00">ResourceLanguage</text>
</g>
<!-- Abstract -->
<g id="node21" class="node"><title>Abstract</title>
<ellipse fill="none" stroke="black" cx="826" cy="-443" rx="51.8276" ry="18.3848"/>
<text text-anchor="middle" x="826" y="-439.4" font-family="Times Roman,serif" font-size="14.00">Abstract</text>
</g>
<!-- Faq -->
<g id="node31" class="node"><title>Faq</title>
<ellipse fill="none" stroke="black" cx="107" cy="-171" rx="27.7881" ry="18.3848"/>
<text text-anchor="middle" x="107" y="-167.4" font-family="Times Roman,serif" font-size="14.00">Faq</text>
</g>
<!-- Abstract&#45;&gt;Faq -->
<g id="edge40" class="edge"><title>Abstract&#45;&gt;Faq</title>
<path fill="none" stroke="black" d="M808.321,-425.552C796.897,-415.31 781.185,-403.034 765,-396 479.534,-271.929 275.387,-519.334 74,-282 50.7164,-254.56 76.1274,-211.225 93.5201,-187.638"/>
</g>
<!-- AbstractPermalink -->
<g id="node35" class="node"><title>AbstractPermalink</title>
<ellipse fill="none" stroke="black" cx="826" cy="-339" rx="101.116" ry="18.3848"/>
<text text-anchor="middle" x="826" y="-335.4" font-family="Times Roman,serif" font-size="14.00">AbstractPermalink</text>
</g>
<!-- Abstract&#45;&gt;AbstractPermalink -->
<g id="edge46" class="edge"><title>Abstract&#45;&gt;AbstractPermalink</title>
<path fill="none" stroke="black" d="M826,-424.407C826,-405.594 826,-376.664 826,-357.783"/>
</g>
<!-- User -->
<g id="node48" class="node"><title>User</title>
<ellipse fill="none" stroke="black" cx="2937" cy="-263" rx="33.9411" ry="18.3848"/>
<text text-anchor="middle" x="2937" y="-259.4" font-family="Times Roman,serif" font-size="14.00">User</text>
</g>
<!-- Abstract&#45;&gt;User -->
<g id="edge82" class="edge"><title>Abstract&#45;&gt;User</title>
<path fill="none" stroke="black" d="M842.936,-425.458C854.31,-414.903 870.238,-402.322 887,-396 1083.37,-321.944 2651.63,-271.635 2903.05,-264.009"/>
</g>
<!-- GlossaryTerm -->
<g id="node22" class="node"><title>GlossaryTerm</title>
<ellipse fill="none" stroke="black" cx="1878" cy="-443" rx="77.7817" ry="18.3848"/>
<text text-anchor="middle" x="1878" y="-439.4" font-family="Times Roman,serif" font-size="14.00">GlossaryTerm</text>
</g>
<!-- PromoInstance -->
<g id="node23" class="node"><title>PromoInstance</title>
<ellipse fill="none" stroke="black" cx="167" cy="-263" rx="84.1457" ry="18.3848"/>
<text text-anchor="middle" x="167" y="-259.4" font-family="Times Roman,serif" font-size="14.00">PromoInstance</text>
</g>
<!-- PromoInstance&#45;&gt;PromoConnection -->
<g id="edge22" class="edge"><title>PromoInstance&#45;&gt;PromoConnection</title>
<path fill="none" stroke="#e3ba82" d="M189.365,-238.505C201.012,-225.749 215.258,-210.146 227.119,-197.155"/>
<ellipse fill="none" stroke="#e3ba82" cx="186.293" cy="-241.87" rx="4.00002" ry="4.00002"/>
<polygon fill="#e3ba82" stroke="#e3ba82" points="227.409,-196.838 237.474,-192.488 230.78,-193.146 234.151,-189.453 234.151,-189.453 234.151,-189.453 230.78,-193.146 230.828,-186.419 227.409,-196.838 227.409,-196.838"/>
</g>
<!-- PageFaq -->
<g id="node24" class="node"><title>PageFaq</title>
<ellipse fill="none" stroke="black" cx="51" cy="-95" rx="51.1176" ry="18.3848"/>
<text text-anchor="middle" x="51" y="-91.4" font-family="Times Roman,serif" font-size="14.00">PageFaq</text>
</g>
<!-- UserResource -->
<g id="node25" class="node"><title>UserResource</title>
<ellipse fill="none" stroke="black" cx="3154" cy="-95" rx="77.7817" ry="18.3848"/>
<text text-anchor="middle" x="3154" y="-91.4" font-family="Times Roman,serif" font-size="14.00">UserResource</text>
</g>
<!-- ResourceAsset -->
<g id="node26" class="node"><title>ResourceAsset</title>
<ellipse fill="none" stroke="black" cx="3016" cy="-19" rx="82.0244" ry="18.3848"/>
<text text-anchor="middle" x="3016" y="-15.4" font-family="Times Roman,serif" font-size="14.00">ResourceAsset</text>
</g>
<!-- UserAudience -->
<g id="node27" class="node"><title>UserAudience</title>
<ellipse fill="none" stroke="black" cx="3862" cy="-171" rx="77.9889" ry="18.3848"/>
<text text-anchor="middle" x="3862" y="-167.4" font-family="Times Roman,serif" font-size="14.00">UserAudience</text>
</g>
<!-- Question -->
<g id="node28" class="node"><title>Question</title>
<ellipse fill="none" stroke="black" cx="1013" cy="-171" rx="55.8614" ry="18.3848"/>
<text text-anchor="middle" x="1013" y="-167.4" font-family="Times Roman,serif" font-size="14.00">Question</text>
</g>
<!-- Question&#45;&gt;Comment -->
<g id="edge24" class="edge"><title>Question&#45;&gt;Comment</title>
<path fill="none" stroke="#b6936d" d="M974.829,-151.788C952.618,-140.609 924.649,-126.532 902.115,-115.19"/>
<ellipse fill="none" stroke="#b6936d" cx="978.506" cy="-153.639" rx="4.00002" ry="4.00002"/>
<polygon fill="#b6936d" stroke="#b6936d" points="902.072,-115.169 895.162,-106.653 897.605,-112.921 893.139,-110.673 893.139,-110.673 893.139,-110.673 897.605,-112.921 891.116,-114.692 902.072,-115.169 902.072,-115.169"/>
</g>
<!-- UserNewsletter -->
<g id="node29" class="node"><title>UserNewsletter</title>
<ellipse fill="none" stroke="black" cx="4046" cy="-171" rx="87.889" ry="18.3848"/>
<text text-anchor="middle" x="4046" y="-167.4" font-family="Times Roman,serif" font-size="14.00">UserNewsletter</text>
</g>
<!-- Page -->
<g id="node30" class="node"><title>Page</title>
<ellipse fill="none" stroke="black" cx="350" cy="-263" rx="34.8574" ry="18.3848"/>
<text text-anchor="middle" x="350" y="-259.4" font-family="Times Roman,serif" font-size="14.00">Page</text>
</g>
<!-- Page&#45;&gt;PromoConnection -->
<g id="edge34" class="edge"><title>Page&#45;&gt;PromoConnection</title>
<path fill="none" stroke="#e35e74" d="M326.305,-240.981C311.803,-227.504 293.199,-210.215 278.111,-196.194"/>
<ellipse fill="none" stroke="#e35e74" cx="329.371" cy="-243.829" rx="4.00002" ry="4.00002"/>
<polygon fill="#e35e74" stroke="#e35e74" points="277.907,-196.004 273.645,-185.9 274.244,-192.601 270.581,-189.197 270.581,-189.197 270.581,-189.197 274.244,-192.601 267.518,-192.493 277.907,-196.004 277.907,-196.004"/>
</g>
<!-- Page&#45;&gt;PageFaq -->
<g id="edge26" class="edge"><title>Page&#45;&gt;PageFaq</title>
<path fill="none" stroke="#960b9c" d="M309.385,-254.296C268.428,-245.447 208.061,-232.184 185,-226 133.271,-212.129 105.811,-229.823 70,-190 53.9102,-172.108 49.8699,-144.545 49.4365,-123.708"/>
<ellipse fill="none" stroke="#960b9c" cx="313.39" cy="-255.16" rx="4.00001" ry="4.00001"/>
<polygon fill="#960b9c" stroke="#960b9c" points="49.4375,-123.511 53.9938,-113.536 49.4657,-118.511 49.4939,-113.511 49.4939,-113.511 49.4939,-113.511 49.4657,-118.511 44.994,-113.486 49.4375,-123.511 49.4375,-123.511"/>
</g>
<!-- Page&#45;&gt;Faq -->
<g id="edge28" class="edge"><title>Page&#45;&gt;Faq</title>
<path fill="none" stroke="#ece1ae" d="M309.91,-250.557C267.947,-237.125 200.439,-214.361 144,-190 141.953,-189.116 139.862,-188.17 137.766,-187.188"/>
<polygon fill="#ece1ae" stroke="#ece1ae" points="309.961,-250.573 318.127,-257.892 314.726,-252.088 319.491,-253.603 319.491,-253.603 319.491,-253.603 314.726,-252.088 320.854,-249.315 309.961,-250.573 309.961,-250.573"/>
<polygon fill="#ece1ae" stroke="#ece1ae" points="137.664,-187.138 130.657,-178.702 133.172,-184.941 128.68,-182.745 128.68,-182.745 128.68,-182.745 133.172,-184.941 126.703,-186.788 137.664,-187.138 137.664,-187.138"/>
</g>
<!-- Resource -->
<g id="node49" class="node"><title>Resource</title>
<ellipse fill="none" stroke="black" cx="1850" cy="-171" rx="55.8614" ry="18.3848"/>
<text text-anchor="middle" x="1850" y="-167.4" font-family="Times Roman,serif" font-size="14.00">Resource</text>
</g>
<!-- Page&#45;&gt;Resource -->
<g id="edge32" class="edge"><title>Page&#45;&gt;Resource</title>
<path fill="none" stroke="#cdd9fe" d="M391.946,-252.937C407.021,-249.642 424.2,-246.253 440,-244 650.913,-213.93 705.305,-220.228 918,-208 1242.56,-189.341 1631.26,-177.192 1783.88,-172.818"/>
<polygon fill="#cdd9fe" stroke="#cdd9fe" points="391.648,-253.004 380.906,-250.797 386.769,-254.096 381.889,-255.189 381.889,-255.189 381.889,-255.189 386.769,-254.096 382.872,-259.58 391.648,-253.004 391.648,-253.004"/>
<polygon fill="#cdd9fe" stroke="#cdd9fe" points="1784.03,-172.814 1794.15,-177.027 1789.03,-172.672 1794.03,-172.529 1794.03,-172.529 1794.03,-172.529 1789.03,-172.672 1793.9,-168.031 1784.03,-172.814 1784.03,-172.814"/>
</g>
<!-- PageResource -->
<g id="node54" class="node"><title>PageResource</title>
<ellipse fill="none" stroke="black" cx="446" cy="-171" rx="79.196" ry="18.3848"/>
<text text-anchor="middle" x="446" y="-167.4" font-family="Times Roman,serif" font-size="14.00">PageResource</text>
</g>
<!-- Page&#45;&gt;PageResource -->
<g id="edge30" class="edge"><title>Page&#45;&gt;PageResource</title>
<path fill="none" stroke="#6f4422" d="M372.977,-240.981C387.039,-227.504 405.08,-210.215 419.711,-196.194"/>
<ellipse fill="none" stroke="#6f4422" cx="370.051" cy="-243.785" rx="4.00002" ry="4.00002"/>
<polygon fill="#6f4422" stroke="#6f4422" points="419.792,-196.116 430.126,-192.446 423.402,-192.656 427.012,-189.197 427.012,-189.197 427.012,-189.197 423.402,-192.656 423.898,-185.948 419.792,-196.116 419.792,-196.116"/>
</g>
<!-- Faq&#45;&gt;PageFaq -->
<g id="edge38" class="edge"><title>Faq&#45;&gt;PageFaq</title>
<path fill="none" stroke="#f65365" d="M89.6706,-147.482C83.5045,-139.113 76.5267,-129.643 70.2123,-121.074"/>
<ellipse fill="none" stroke="#f65365" cx="92.199" cy="-150.913" rx="4.00002" ry="4.00002"/>
<polygon fill="#f65365" stroke="#f65365" points="70.1058,-120.929 67.7965,-110.209 67.1398,-116.904 64.1737,-112.879 64.1737,-112.879 64.1737,-112.879 67.1398,-116.904 60.551,-115.548 70.1058,-120.929 70.1058,-120.929"/>
</g>
<!-- Phase -->
<g id="node32" class="node"><title>Phase</title>
<ellipse fill="none" stroke="black" cx="979" cy="-95" rx="41.0122" ry="18.3848"/>
<text text-anchor="middle" x="979" y="-91.4" font-family="Times Roman,serif" font-size="14.00">Phase</text>
</g>
<!-- Organization -->
<g id="node33" class="node"><title>Organization</title>
<ellipse fill="none" stroke="black" cx="1354" cy="-263" rx="75.1594" ry="18.3848"/>
<text text-anchor="middle" x="1354" y="-259.4" font-family="Times Roman,serif" font-size="14.00">Organization</text>
</g>
<!-- Organization&#45;&gt;Resource -->
<g id="edge42" class="edge"><title>Organization&#45;&gt;Resource</title>
<path fill="none" stroke="#d48221" d="M1422.37,-250.318C1520.18,-232.176 1698.4,-199.118 1790.85,-181.972"/>
<ellipse fill="none" stroke="#d48221" cx="1418.26" cy="-251.081" rx="4.00001" ry="4.00001"/>
<polygon fill="#d48221" stroke="#d48221" points="1791.04,-181.936 1801.69,-184.537 1795.95,-181.025 1800.87,-180.113 1800.87,-180.113 1800.87,-180.113 1795.95,-181.025 1800.05,-175.688 1791.04,-181.936 1791.04,-181.936"/>
</g>
<!-- AbstractPermalink&#45;&gt;Event -->
<g id="edge16" class="edge"><title>AbstractPermalink&#45;&gt;Event</title>
<path fill="none" stroke="black" d="M815.027,-320.379C795.846,-287.83 756.467,-221.005 737.572,-188.94"/>
</g>
<!-- AbstractPermalink&#45;&gt;ForumThread -->
<g id="edge20" class="edge"><title>AbstractPermalink&#45;&gt;ForumThread</title>
<path fill="none" stroke="black" d="M818.133,-320.417C811.043,-300.991 802.88,-269.802 811,-244 817.59,-223.059 832.561,-202.889 844.588,-189.078"/>
</g>
<!-- AbstractPermalink&#45;&gt;Page -->
<g id="edge36" class="edge"><title>AbstractPermalink&#45;&gt;Page</title>
<path fill="none" stroke="black" d="M743.31,-328.286C664.987,-317.785 544.185,-300.671 440,-282 420.823,-278.563 399.484,-274.087 382.399,-270.343"/>
</g>
<!-- AbstractPermalink&#45;&gt;Organization -->
<g id="edge44" class="edge"><title>AbstractPermalink&#45;&gt;Organization</title>
<path fill="none" stroke="black" d="M878.301,-323.136C906.671,-315.084 942.491,-305.804 975,-300 1080.27,-281.207 1203.82,-271.391 1280.52,-266.711"/>
</g>
<!-- AbstractPermalink&#45;&gt;Resource -->
<g id="edge120" class="edge"><title>AbstractPermalink&#45;&gt;Resource</title>
<path fill="none" stroke="black" d="M854.709,-321.237C871.912,-310.338 894.051,-295.856 913,-282 955.08,-251.231 955.272,-226.521 1004,-208 1077.35,-180.121 1616.77,-173.009 1793.86,-171.416"/>
</g>
<!-- Forum -->
<g id="node51" class="node"><title>Forum</title>
<ellipse fill="none" stroke="black" cx="862" cy="-263" rx="41.9273" ry="18.3848"/>
<text text-anchor="middle" x="862" y="-259.4" font-family="Times Roman,serif" font-size="14.00">Forum</text>
</g>
<!-- AbstractPermalink&#45;&gt;Forum -->
<g id="edge124" class="edge"><title>AbstractPermalink&#45;&gt;Forum</title>
<path fill="none" stroke="black" d="M834.899,-320.213C840.521,-308.345 847.75,-293.084 853.328,-281.308"/>
</g>
<!-- ResourceImport -->
<g id="node36" class="node"><title>ResourceImport</title>
<ellipse fill="none" stroke="black" cx="2062" cy="-443" rx="87.889" ry="18.3848"/>
<text text-anchor="middle" x="2062" y="-439.4" font-family="Times Roman,serif" font-size="14.00">ResourceImport</text>
</g>
<!-- Subject -->
<g id="node37" class="node"><title>Subject</title>
<ellipse fill="none" stroke="black" cx="1086" cy="-95" rx="48.0833" ry="18.3848"/>
<text text-anchor="middle" x="1086" y="-91.4" font-family="Times Roman,serif" font-size="14.00">Subject</text>
</g>
<!-- Audience -->
<g id="node39" class="node"><title>Audience</title>
<ellipse fill="none" stroke="black" cx="3002" cy="-95" rx="56.0679" ry="18.3848"/>
<text text-anchor="middle" x="3002" y="-91.4" font-family="Times Roman,serif" font-size="14.00">Audience</text>
</g>
<!-- ContactSubmission -->
<g id="node41" class="node"><title>ContactSubmission</title>
<ellipse fill="none" stroke="black" cx="2272" cy="-443" rx="104.151" ry="18.3848"/>
<text text-anchor="middle" x="2272" y="-439.4" font-family="Times Roman,serif" font-size="14.00">ContactSubmission</text>
</g>
<!-- Folder -->
<g id="node42" class="node"><title>Folder</title>
<ellipse fill="none" stroke="black" cx="3687" cy="-171" rx="41.2167" ry="18.3848"/>
<text text-anchor="middle" x="3687" y="-167.4" font-family="Times Roman,serif" font-size="14.00">Folder</text>
</g>
<!-- Bookmark -->
<g id="node53" class="node"><title>Bookmark</title>
<ellipse fill="none" stroke="black" cx="3738" cy="-95" rx="60.8112" ry="18.3848"/>
<text text-anchor="middle" x="3738" y="-91.4" font-family="Times Roman,serif" font-size="14.00">Bookmark</text>
</g>
<!-- Folder&#45;&gt;Bookmark -->
<g id="edge48" class="edge"><title>Folder&#45;&gt;Bookmark</title>
<path fill="none" stroke="#da1b72" d="M3703.65,-146.187C3708.96,-138.278 3714.85,-129.499 3720.23,-121.476"/>
<ellipse fill="none" stroke="#da1b72" cx="3701.32" cy="-149.668" rx="4.00002" ry="4.00002"/>
<polygon fill="#da1b72" stroke="#da1b72" points="3720.25,-121.449 3729.56,-115.653 3723.04,-117.297 3725.82,-113.145 3725.82,-113.145 3725.82,-113.145 3723.04,-117.297 3722.09,-110.638 3720.25,-121.449 3720.25,-121.449"/>
</g>
<!-- Asset&#45;&gt;ResourceAsset -->
<g id="edge50" class="edge"><title>Asset&#45;&gt;ResourceAsset</title>
<path fill="none" stroke="#c46dc8" d="M3251.65,-79.7397C3248.07,-78.4099 3244.48,-77.139 3241,-76 3189.73,-59.2278 3130.55,-44.4095 3085.75,-34.0883"/>
<ellipse fill="none" stroke="#c46dc8" cx="3255.66" cy="-81.282" rx="4.00001" ry="4.00001"/>
<polygon fill="#c46dc8" stroke="#c46dc8" points="3085.6,-34.0523 3076.85,-27.4378 3080.72,-32.9385 3075.85,-31.8248 3075.85,-31.8248 3075.85,-31.8248 3080.72,-32.9385 3074.84,-36.2117 3085.6,-34.0523 3085.6,-34.0523"/>
</g>
<!-- ResourceSubject -->
<g id="node46" class="node"><title>ResourceSubject</title>
<ellipse fill="none" stroke="black" cx="1244" cy="-95" rx="91.9239" ry="18.3848"/>
<text text-anchor="middle" x="1244" y="-91.4" font-family="Times Roman,serif" font-size="14.00">ResourceSubject</text>
</g>
<!-- ResourceSupport -->
<g id="node47" class="node"><title>ResourceSupport</title>
<ellipse fill="none" stroke="black" cx="1449" cy="-95" rx="94.7523" ry="18.3848"/>
<text text-anchor="middle" x="1449" y="-91.4" font-family="Times Roman,serif" font-size="14.00">ResourceSupport</text>
</g>
<!-- User&#45;&gt;UserSettings -->
<g id="edge80" class="edge"><title>User&#45;&gt;UserSettings</title>
<path fill="none" stroke="#835d50" d="M2963.57,-242.799C2982.66,-228.282 3008.42,-208.698 3028.21,-193.65"/>
<ellipse fill="none" stroke="#835d50" cx="2960.16" cy="-245.387" rx="4.00002" ry="4.00002"/>
<ellipse fill="#835d50" stroke="#835d50" cx="3031.49" cy="-191.156" rx="4.00002" ry="4.00002"/>
<text text-anchor="middle" x="3055.5" y="-213.4" font-family="Times Roman,serif" font-size="14.00">user_settings</text>
</g>
<!-- User&#45;&gt;ResourceSuggestion -->
<g id="edge66" class="edge"><title>User&#45;&gt;ResourceSuggestion</title>
<path fill="none" stroke="#465cfa" d="M2976.92,-254.499C3048.16,-239.327 3198.4,-207.331 3290.82,-187.648"/>
<ellipse fill="none" stroke="#465cfa" cx="2972.68" cy="-255.402" rx="4.00001" ry="4.00001"/>
<polygon fill="#465cfa" stroke="#465cfa" points="3290.91,-187.63 3301.63,-189.949 3295.8,-186.589 3300.69,-185.547 3300.69,-185.547 3300.69,-185.547 3295.8,-186.589 3299.75,-181.146 3290.91,-187.63 3290.91,-187.63"/>
</g>
<!-- User&#45;&gt;ForumThread -->
<g id="edge60" class="edge"><title>User&#45;&gt;ForumThread</title>
<path fill="none" stroke="#978a34" d="M2894.8,-262.67C2619.15,-260.457 1083.29,-247.204 987,-226 956.747,-219.338 924.815,-205.15 900.797,-192.853"/>
<ellipse fill="none" stroke="#978a34" cx="2898.96" cy="-262.703" rx="4" ry="4"/>
<polygon fill="#978a34" stroke="#978a34" points="900.533,-192.715 893.76,-184.091 896.103,-190.397 891.674,-188.078 891.674,-188.078 891.674,-188.078 896.103,-190.397 889.587,-192.065 900.533,-192.715 900.533,-192.715"/>
</g>
<!-- User&#45;&gt;Newsletter -->
<g id="edge74" class="edge"><title>User&#45;&gt;Newsletter</title>
<path fill="none" stroke="#d57c19" d="M2980.92,-258.921C3074.51,-249.846 3300.29,-225.915 3487,-190 3492.75,-188.895 3498.71,-187.615 3504.65,-186.253"/>
<polygon fill="#d57c19" stroke="#d57c19" points="2980.65,-258.947 2970.27,-255.424 2975.68,-259.425 2970.7,-259.904 2970.7,-259.904 2970.7,-259.904 2975.68,-259.425 2971.13,-264.383 2980.65,-258.947 2980.65,-258.947"/>
<polygon fill="#d57c19" stroke="#d57c19" points="3504.85,-186.206 3515.61,-188.278 3509.71,-185.053 3514.58,-183.899 3514.58,-183.899 3514.58,-183.899 3509.71,-185.053 3513.54,-179.52 3504.85,-186.206 3504.85,-186.206"/>
</g>
<!-- User&#45;&gt;UserResource -->
<g id="edge76" class="edge"><title>User&#45;&gt;UserResource</title>
<path fill="none" stroke="#f7eda0" d="M2943.23,-236.164C2950.44,-207.278 2962.88,-163.865 2975,-152 2991.2,-136.147 3042.57,-120.706 3086.15,-109.903"/>
<ellipse fill="none" stroke="#f7eda0" cx="2942.21" cy="-240.364" rx="4.00001" ry="4.00001"/>
<polygon fill="#f7eda0" stroke="#f7eda0" points="3086.17,-109.899 3096.95,-111.906 3091.03,-108.716 3095.88,-107.533 3095.88,-107.533 3095.88,-107.533 3091.03,-108.716 3094.82,-103.161 3086.17,-109.899 3086.17,-109.899"/>
</g>
<!-- User&#45;&gt;UserAudience -->
<g id="edge68" class="edge"><title>User&#45;&gt;UserAudience</title>
<path fill="none" stroke="#8875c3" d="M2979.24,-262.336C3138.04,-259.672 3694.06,-248.794 3770,-226 3791.86,-219.44 3813.88,-206.545 3830.9,-194.889"/>
<ellipse fill="none" stroke="#8875c3" cx="2975.1" cy="-262.404" rx="4" ry="4"/>
<polygon fill="#8875c3" stroke="#8875c3" points="3831.15,-194.715 3841.91,-192.623 3835.23,-191.831 3839.32,-188.947 3839.32,-188.947 3839.32,-188.947 3835.23,-191.831 3836.72,-185.271 3831.15,-194.715 3831.15,-194.715"/>
</g>
<!-- User&#45;&gt;Question -->
<g id="edge62" class="edge"><title>User&#45;&gt;Question</title>
<path fill="none" stroke="#2907dd" d="M2894.45,-262.594C2611.54,-259.844 1013.21,-243.543 996,-226 988.68,-218.539 990.178,-207.996 994.51,-198.133"/>
<ellipse fill="none" stroke="#2907dd" cx="2898.81" cy="-262.636" rx="4" ry="4"/>
<polygon fill="#2907dd" stroke="#2907dd" points="994.661,-197.848 1003.32,-191.113 996.999,-193.428 999.337,-189.009 999.337,-189.009 999.337,-189.009 996.999,-193.428 995.36,-186.904 994.661,-197.848 994.661,-197.848"/>
</g>
<!-- User&#45;&gt;Question -->
<g id="edge64" class="edge"><title>User&#45;&gt;Question</title>
<path fill="none" stroke="#9210f4" d="M2894.45,-262.574C2613.3,-259.712 1033.49,-242.884 1016,-226 1009.03,-219.269 1007.11,-209.248 1007.33,-199.596"/>
<ellipse fill="none" stroke="#9210f4" cx="2898.77" cy="-262.618" rx="4" ry="4"/>
<polygon fill="#9210f4" stroke="#9210f4" points="1007.35,-199.399 1012.75,-189.859 1007.81,-194.42 1008.27,-189.442 1008.27,-189.442 1008.27,-189.442 1007.81,-194.42 1003.79,-189.025 1007.35,-199.399 1007.35,-199.399"/>
<text text-anchor="middle" x="1078" y="-213.4" font-family="Times Roman,serif" font-size="14.00">adviser_questions</text>
</g>
<!-- User&#45;&gt;UserNewsletter -->
<g id="edge72" class="edge"><title>User&#45;&gt;UserNewsletter</title>
<path fill="none" stroke="#ec5297" d="M2979.6,-262.195C3130.77,-259.18 3641.05,-247.608 3803,-226 3864.97,-217.731 3934.43,-201.266 3983.16,-188.497"/>
<ellipse fill="none" stroke="#ec5297" cx="2975.42" cy="-262.278" rx="4" ry="4"/>
<polygon fill="#ec5297" stroke="#ec5297" points="3983.26,-188.47 3994.08,-190.264 3988.1,-187.192 3992.93,-185.914 3992.93,-185.914 3992.93,-185.914 3988.1,-187.192 3991.78,-181.563 3983.26,-188.47 3983.26,-188.47"/>
</g>
<!-- User&#45;&gt;Comment -->
<g id="edge56" class="edge"><title>User&#45;&gt;Comment</title>
<path fill="none" stroke="#2cfb69" d="M2894.72,-261.783C2774.4,-258.165 2419.84,-246.438 2126,-226 1592.96,-188.925 1454.22,-212.188 929,-114 923.93,-113.052 918.69,-111.893 913.477,-110.619"/>
<ellipse fill="none" stroke="#2cfb69" cx="2898.97" cy="-261.91" rx="4" ry="4"/>
<polygon fill="#2cfb69" stroke="#2cfb69" points="913.219,-110.552 904.661,-103.695 908.377,-109.302 903.536,-108.052 903.536,-108.052 903.536,-108.052 908.377,-109.302 902.411,-112.409 913.219,-110.552 913.219,-110.552"/>
</g>
<!-- User&#45;&gt;Audience -->
<g id="edge70" class="edge"><title>User&#45;&gt;Audience</title>
<path fill="none" stroke="#07c22a" d="M2934.49,-234.42C2933.38,-211.613 2933.83,-179.106 2942,-152 2946.1,-138.407 2955.97,-126.815 2966.55,-117.705"/>
<polygon fill="#07c22a" stroke="#07c22a" points="2934.5,-234.485 2930.62,-244.743 2934.8,-239.476 2935.11,-244.466 2935.11,-244.466 2935.11,-244.466 2934.8,-239.476 2939.6,-244.19 2934.5,-234.485 2934.5,-234.485"/>
<polygon fill="#07c22a" stroke="#07c22a" points="2966.87,-117.453 2977.5,-114.752 2970.78,-114.341 2974.69,-111.23 2974.69,-111.23 2974.69,-111.23 2970.78,-114.341 2971.89,-107.707 2966.87,-117.453 2966.87,-117.453"/>
</g>
<!-- User&#45;&gt;Folder -->
<g id="edge58" class="edge"><title>User&#45;&gt;Folder</title>
<path fill="none" stroke="#aa4a59" d="M2979.24,-260.136C3110.62,-250.985 3510.78,-221.222 3637,-190 3640.39,-189.161 3643.87,-188.157 3647.33,-187.057"/>
<ellipse fill="none" stroke="#aa4a59" cx="2974.97" cy="-260.432" rx="4" ry="4"/>
<polygon fill="#aa4a59" stroke="#aa4a59" points="3647.51,-186.996 3658.43,-188.007 3652.24,-185.373 3656.97,-183.751 3656.97,-183.751 3656.97,-183.751 3652.24,-185.373 3655.51,-179.494 3647.51,-186.996 3647.51,-186.996"/>
</g>
<!-- User&#45;&gt;Resource -->
<g id="edge54" class="edge"><title>User&#45;&gt;Resource</title>
<path fill="none" stroke="#aaf10c" d="M2892.81,-261.537C2787.56,-257.823 2513.79,-246.816 2286,-226 2151.84,-213.741 1995.33,-192.227 1911.13,-180.058"/>
<polygon fill="#aaf10c" stroke="#aaf10c" points="2893.06,-261.545 2902.9,-266.391 2898.06,-261.719 2903.05,-261.894 2903.05,-261.894 2903.05,-261.894 2898.06,-261.719 2903.21,-257.396 2893.06,-261.545 2893.06,-261.545"/>
<polygon fill="#aaf10c" stroke="#aaf10c" points="1911.12,-180.057 1901.87,-174.168 1906.17,-179.339 1901.22,-178.621 1901.22,-178.621 1901.22,-178.621 1906.17,-179.339 1900.58,-183.075 1911.12,-180.057 1911.12,-180.057"/>
<text text-anchor="middle" x="2365" y="-213.4" font-family="Times Roman,serif" font-size="14.00">bookmarked_resources</text>
</g>
<!-- User&#45;&gt;Resource -->
<g id="edge78" class="edge"><title>User&#45;&gt;Resource</title>
<path fill="none" stroke="#2acf3e" d="M2893.75,-257.454C2808.05,-246.627 2610.58,-222.471 2444,-208 2252.54,-191.367 2025.73,-179.372 1916,-174.056"/>
<polygon fill="#2acf3e" stroke="#2acf3e" points="2893.95,-257.481 2903.31,-263.202 2898.92,-258.109 2903.88,-258.738 2903.88,-258.738 2903.88,-258.738 2898.92,-258.109 2904.44,-254.274 2893.95,-257.481 2893.95,-257.481"/>
<polygon fill="#2acf3e" stroke="#2acf3e" points="1915.74,-174.043 1905.97,-169.067 1910.75,-173.803 1905.76,-173.562 1905.76,-173.562 1905.76,-173.562 1910.75,-173.803 1905.54,-178.057 1915.74,-174.043 1915.74,-174.043"/>
</g>
<!-- User&#45;&gt;Bookmark -->
<g id="edge52" class="edge"><title>User&#45;&gt;Bookmark</title>
<path fill="none" stroke="#bb29b4" d="M2979.5,-262.45C3137.78,-259.963 3686.55,-247.242 3737,-190 3752.67,-172.216 3751.06,-144.459 3746.64,-123.531"/>
<ellipse fill="none" stroke="#bb29b4" cx="2975.38" cy="-262.513" rx="4" ry="4"/>
<polygon fill="#bb29b4" stroke="#bb29b4" points="3746.58,-123.307 3748.59,-112.527 3745.4,-118.448 3744.22,-113.59 3744.22,-113.59 3744.22,-113.59 3745.4,-118.448 3739.85,-114.652 3746.58,-123.307 3746.58,-123.307"/>
</g>
<!-- Resource&#45;&gt;Borough -->
<g id="edge94" class="edge"><title>Resource&#45;&gt;Borough</title>
<path fill="none" stroke="#dd5af8" d="M1784.01,-169.535C1583.98,-164.761 986.386,-147.971 795,-114 790.261,-113.159 785.376,-112.069 780.526,-110.836"/>
<polygon fill="#dd5af8" stroke="#dd5af8" points="1784.08,-169.536 1793.97,-174.272 1789.08,-169.655 1794.08,-169.773 1794.08,-169.773 1794.08,-169.773 1789.08,-169.655 1794.19,-165.274 1784.08,-169.536 1784.08,-169.536"/>
<polygon fill="#dd5af8" stroke="#dd5af8" points="780.322,-110.781 771.865,-103.801 775.499,-109.461 770.677,-108.141 770.677,-108.141 770.677,-108.141 775.499,-109.461 769.489,-112.482 780.322,-110.781 780.322,-110.781"/>
</g>
<!-- Resource&#45;&gt;Language -->
<g id="edge100" class="edge"><title>Resource&#45;&gt;Language</title>
<path fill="none" stroke="#beb7c4" d="M1894.01,-152.104C1921.05,-140.493 1955.58,-125.664 1982.68,-114.028"/>
<polygon fill="#beb7c4" stroke="#beb7c4" points="1893.74,-152.221 1882.77,-152.031 1889.14,-154.193 1884.55,-156.166 1884.55,-156.166 1884.55,-156.166 1889.14,-154.193 1886.32,-160.301 1893.74,-152.221 1893.74,-152.221"/>
<polygon fill="#beb7c4" stroke="#beb7c4" points="1982.75,-114.002 1993.71,-114.191 1987.34,-112.029 1991.93,-110.056 1991.93,-110.056 1991.93,-110.056 1987.34,-112.029 1990.16,-105.921 1982.75,-114.002 1982.75,-114.002"/>
</g>
<!-- Resource&#45;&gt;ResourceSubwayLine -->
<g id="edge110" class="edge"><title>Resource&#45;&gt;ResourceSubwayLine</title>
<path fill="none" stroke="#f805a8" d="M1905.7,-159.559C1967.55,-146.855 2067.95,-126.231 2138.6,-111.719"/>
<ellipse fill="none" stroke="#f805a8" cx="1901.53" cy="-160.415" rx="4.00001" ry="4.00001"/>
<polygon fill="#f805a8" stroke="#f805a8" points="2139.01,-111.636 2149.71,-114.032 2143.91,-110.63 2148.8,-109.624 2148.8,-109.624 2148.8,-109.624 2143.91,-110.63 2147.9,-105.216 2139.01,-111.636 2139.01,-111.636"/>
</g>
<!-- Resource&#45;&gt;ResourceBorough -->
<g id="edge92" class="edge"><title>Resource&#45;&gt;ResourceBorough</title>
<path fill="none" stroke="#9ba7c4" d="M1911.96,-165.125C2005.85,-155.938 2189.7,-136.837 2345,-114 2353.67,-112.725 2362.72,-111.281 2371.71,-109.771"/>
<ellipse fill="none" stroke="#9ba7c4" cx="1907.96" cy="-165.515" rx="4" ry="4"/>
<polygon fill="#9ba7c4" stroke="#9ba7c4" points="2371.97,-109.727 2382.58,-112.48 2376.9,-108.886 2381.82,-108.044 2381.82,-108.044 2381.82,-108.044 2376.9,-108.886 2381.07,-103.608 2371.97,-109.727 2371.97,-109.727"/>
</g>
<!-- Resource&#45;&gt;Support -->
<g id="edge116" class="edge"><title>Resource&#45;&gt;Support</title>
<path fill="none" stroke="#f832f8" d="M1915.68,-167.649C2066.74,-159.626 2435.24,-138.175 2557,-114 2561.39,-113.128 2565.92,-112.037 2570.42,-110.821"/>
<polygon fill="#f832f8" stroke="#f832f8" points="1915.6,-167.653 1905.37,-163.687 1910.61,-167.917 1905.61,-168.181 1905.61,-168.181 1905.61,-168.181 1910.61,-167.917 1905.85,-172.674 1915.6,-167.653 1915.6,-167.653"/>
<polygon fill="#f832f8" stroke="#f832f8" points="2570.55,-110.782 2581.41,-112.32 2575.35,-109.39 2580.15,-107.998 2580.15,-107.998 2580.15,-107.998 2575.35,-109.39 2578.9,-103.676 2570.55,-110.782 2570.55,-110.782"/>
</g>
<!-- Resource&#45;&gt;ResourceLanguage -->
<g id="edge98" class="edge"><title>Resource&#45;&gt;ResourceLanguage</title>
<path fill="none" stroke="#3c66ae" d="M1914.3,-168.943C2053.46,-163.969 2392.82,-149.018 2675,-114 2684.69,-112.798 2694.82,-111.35 2704.85,-109.797"/>
<ellipse fill="none" stroke="#3c66ae" cx="1910.22" cy="-169.087" rx="4" ry="4"/>
<polygon fill="#3c66ae" stroke="#3c66ae" points="2704.96,-109.779 2715.55,-112.658 2709.9,-108.996 2714.84,-108.213 2714.84,-108.213 2714.84,-108.213 2709.9,-108.996 2714.14,-103.769 2704.96,-109.779 2704.96,-109.779"/>
</g>
<!-- Resource&#45;&gt;UserResource -->
<g id="edge118" class="edge"><title>Resource&#45;&gt;UserResource</title>
<path fill="none" stroke="#48dbe1" d="M1914.61,-170.186C2076.48,-167.816 2512.46,-159.397 2875,-134 2960.59,-128.005 2982.29,-127.618 3067,-114 3074.03,-112.87 3081.35,-111.531 3088.62,-110.095"/>
<ellipse fill="none" stroke="#48dbe1" cx="1910.18" cy="-170.25" rx="4" ry="4"/>
<polygon fill="#48dbe1" stroke="#48dbe1" points="3088.68,-110.083 3099.38,-112.498 3093.58,-109.086 3098.48,-108.088 3098.48,-108.088 3098.48,-108.088 3093.58,-109.086 3097.58,-103.679 3088.68,-110.083 3088.68,-110.083"/>
</g>
<!-- Resource&#45;&gt;ResourceAsset -->
<g id="edge88" class="edge"><title>Resource&#45;&gt;ResourceAsset</title>
<path fill="none" stroke="#582b2e" d="M1914.15,-170.173C2128.18,-167.047 2809.33,-154.026 2899,-114 2920.81,-104.264 2918.81,-91.4818 2937,-76 2950.76,-64.2888 2966.79,-52.4259 2980.8,-42.5772"/>
<ellipse fill="none" stroke="#582b2e" cx="1910.13" cy="-170.231" rx="4" ry="4"/>
<polygon fill="#582b2e" stroke="#582b2e" points="2981.02,-42.4296 2991.8,-40.4206 2985.12,-39.5772 2989.23,-36.7247 2989.23,-36.7247 2989.23,-36.7247 2985.12,-39.5772 2986.66,-33.0288 2981.02,-42.4296 2981.02,-42.4296"/>
</g>
<!-- Resource&#45;&gt;Phase -->
<g id="edge104" class="edge"><title>Resource&#45;&gt;Phase</title>
<path fill="none" stroke="#e6c7be" d="M1784.57,-167.2C1677.41,-160.89 1457.8,-147.592 1272,-134 1163.92,-126.094 1134.69,-137.927 1029,-114 1025.54,-113.218 1022.01,-112.246 1018.49,-111.16"/>
<polygon fill="#e6c7be" stroke="#e6c7be" points="1784.6,-167.202 1794.32,-172.281 1789.59,-167.496 1794.58,-167.789 1794.58,-167.789 1794.58,-167.789 1789.59,-167.496 1794.85,-163.297 1784.6,-167.202 1784.6,-167.202"/>
<polygon fill="#e6c7be" stroke="#e6c7be" points="1018.19,-111.059 1010.16,-103.592 1013.46,-109.457 1008.72,-107.854 1008.72,-107.854 1008.72,-107.854 1013.46,-109.457 1007.28,-112.117 1018.19,-111.059 1018.19,-111.059"/>
</g>
<!-- Resource&#45;&gt;Subject -->
<g id="edge108" class="edge"><title>Resource&#45;&gt;Subject</title>
<path fill="none" stroke="#89477c" d="M1784.31,-167.733C1633.2,-159.89 1264.64,-138.796 1143,-114 1138.86,-113.156 1134.6,-112.104 1130.37,-110.93"/>
<polygon fill="#89477c" stroke="#89477c" points="1784.39,-167.737 1794.14,-172.747 1789.38,-167.995 1794.37,-168.253 1794.37,-168.253 1794.37,-168.253 1789.38,-167.995 1794.61,-163.759 1784.39,-167.737 1784.39,-167.737"/>
<polygon fill="#89477c" stroke="#89477c" points="1130.19,-110.875 1121.89,-103.7 1125.4,-109.443 1120.6,-108.012 1120.6,-108.012 1120.6,-108.012 1125.4,-109.443 1119.32,-112.323 1130.19,-110.875 1130.19,-110.875"/>
</g>
<!-- Resource&#45;&gt;Comment -->
<g id="edge96" class="edge"><title>Resource&#45;&gt;Comment</title>
<path fill="none" stroke="#7702fd" d="M1786.57,-167.454C1585.22,-156.147 971.191,-121.263 929,-114 923.845,-113.113 918.518,-111.982 913.226,-110.717"/>
<ellipse fill="none" stroke="#7702fd" cx="1790.71" cy="-167.686" rx="4" ry="4"/>
<polygon fill="#7702fd" stroke="#7702fd" points="912.833,-110.617 904.256,-103.784 907.989,-109.381 903.144,-108.145 903.144,-108.145 903.144,-108.145 907.989,-109.381 902.031,-112.505 912.833,-110.617 912.833,-110.617"/>
</g>
<!-- Resource&#45;&gt;Audience -->
<g id="edge86" class="edge"><title>Resource&#45;&gt;Audience</title>
<path fill="none" stroke="#c77463" d="M1916.02,-170.411C2109.37,-168.393 2672.12,-160.358 2854,-134 2887.4,-129.159 2924.1,-119.52 2952.59,-111.037"/>
<polygon fill="#c77463" stroke="#c77463" points="1916,-170.411 1905.96,-166.014 1911,-170.462 1906,-170.513 1906,-170.513 1906,-170.513 1911,-170.462 1906.05,-175.013 1916,-170.411 1916,-170.411"/>
<polygon fill="#c77463" stroke="#c77463" points="2952.74,-110.992 2963.61,-112.401 2957.52,-109.543 2962.31,-108.094 2962.31,-108.094 2962.31,-108.094 2957.52,-109.543 2961,-103.787 2952.74,-110.992 2952.74,-110.992"/>
</g>
<!-- Resource&#45;&gt;SubwayLine -->
<g id="edge112" class="edge"><title>Resource&#45;&gt;SubwayLine</title>
<path fill="none" stroke="#7af6cf" d="M1783.92,-168.819C1636.89,-163.837 1271.55,-150.749 966,-134 834.785,-126.807 800.928,-133.695 671,-114 664.457,-113.008 657.66,-111.752 650.916,-110.361"/>
<polygon fill="#7af6cf" stroke="#7af6cf" points="1784.13,-168.826 1793.97,-173.661 1789.13,-168.995 1794.13,-169.163 1794.13,-169.163 1794.13,-169.163 1789.13,-168.995 1794.28,-164.666 1784.13,-168.826 1784.13,-168.826"/>
<polygon fill="#7af6cf" stroke="#7af6cf" points="650.882,-110.354 642.06,-103.842 645.995,-109.297 641.108,-108.24 641.108,-108.24 641.108,-108.24 645.995,-109.297 640.157,-112.638 650.882,-110.354 650.882,-110.354"/>
</g>
<!-- Resource&#45;&gt;Asset -->
<g id="edge90" class="edge"><title>Resource&#45;&gt;Asset</title>
<path fill="none" stroke="#6b8770" d="M1916.07,-169.236C2082.14,-164.681 2530.48,-151.637 2904,-134 3053.87,-126.923 3094.63,-146.996 3241,-114 3244.22,-113.274 3247.5,-112.353 3250.77,-111.31"/>
<polygon fill="#6b8770" stroke="#6b8770" points="1916.01,-169.238 1905.89,-165.013 1911.01,-169.374 1906.01,-169.511 1906.01,-169.511 1906.01,-169.511 1911.01,-169.374 1906.13,-174.009 1916.01,-169.238 1916.01,-169.238"/>
<polygon fill="#6b8770" stroke="#6b8770" points="3250.97,-111.237 3261.9,-112.126 3255.68,-109.561 3260.4,-107.886 3260.4,-107.886 3260.4,-107.886 3255.68,-109.561 3258.89,-103.646 3250.97,-111.237 3250.97,-111.237"/>
</g>
<!-- Resource&#45;&gt;ResourceSubject -->
<g id="edge106" class="edge"><title>Resource&#45;&gt;ResourceSubject</title>
<path fill="none" stroke="#fc3c11" d="M1787.53,-165.44C1691.94,-156.596 1503.75,-137.858 1345,-114 1336.76,-112.761 1328.16,-111.342 1319.61,-109.849"/>
<ellipse fill="none" stroke="#fc3c11" cx="1791.66" cy="-165.821" rx="4" ry="4"/>
<polygon fill="#fc3c11" stroke="#fc3c11" points="1319.47,-109.823 1310.41,-103.639 1314.54,-108.946 1309.62,-108.069 1309.62,-108.069 1309.62,-108.069 1314.54,-108.946 1308.83,-112.499 1319.47,-109.823 1319.47,-109.823"/>
</g>
<!-- Resource&#45;&gt;ResourceSupport -->
<g id="edge114" class="edge"><title>Resource&#45;&gt;ResourceSupport</title>
<path fill="none" stroke="#621d71" d="M1793.07,-160.21C1723.53,-147.031 1605.53,-124.667 1527.43,-109.865"/>
<ellipse fill="none" stroke="#621d71" cx="1797.3" cy="-161.012" rx="4.00001" ry="4.00001"/>
<polygon fill="#621d71" stroke="#621d71" points="1526.99,-109.781 1518,-103.497 1522.07,-108.85 1517.16,-107.919 1517.16,-107.919 1517.16,-107.919 1522.07,-108.85 1516.32,-112.34 1526.99,-109.781 1526.99,-109.781"/>
</g>
<!-- ResourcePhase -->
<g id="node50" class="node"><title>ResourcePhase</title>
<ellipse fill="none" stroke="black" cx="1647" cy="-95" rx="84.8528" ry="18.3848"/>
<text text-anchor="middle" x="1647" y="-91.4" font-family="Times Roman,serif" font-size="14.00">ResourcePhase</text>
</g>
<!-- Resource&#45;&gt;ResourcePhase -->
<g id="edge102" class="edge"><title>Resource&#45;&gt;ResourcePhase</title>
<path fill="none" stroke="#d17c2b" d="M1805.21,-154.231C1773.97,-142.537 1732.19,-126.893 1699.4,-114.619"/>
<ellipse fill="none" stroke="#d17c2b" cx="1809.02" cy="-155.658" rx="4.00001" ry="4.00001"/>
<polygon fill="#d17c2b" stroke="#d17c2b" points="1699.34,-114.596 1691.56,-106.876 1694.66,-112.843 1689.98,-111.09 1689.98,-111.09 1689.98,-111.09 1694.66,-112.843 1688.4,-115.304 1699.34,-114.596 1699.34,-114.596"/>
</g>
<!-- ResourceAudience -->
<g id="node55" class="node"><title>ResourceAudience</title>
<ellipse fill="none" stroke="black" cx="1850" cy="-95" rx="99.9096" ry="18.3848"/>
<text text-anchor="middle" x="1850" y="-91.4" font-family="Times Roman,serif" font-size="14.00">ResourceAudience</text>
</g>
<!-- Resource&#45;&gt;ResourceAudience -->
<g id="edge84" class="edge"><title>Resource&#45;&gt;ResourceAudience</title>
<path fill="none" stroke="#5c818f" d="M1850,-144.073C1850,-137.449 1850,-130.332 1850,-123.63"/>
<ellipse fill="none" stroke="#5c818f" cx="1850" cy="-148.213" rx="4" ry="4"/>
<polygon fill="#5c818f" stroke="#5c818f" points="1850,-123.57 1854.5,-113.57 1850,-118.57 1850,-113.57 1850,-113.57 1850,-113.57 1850,-118.57 1845.5,-113.57 1850,-123.57 1850,-123.57"/>
</g>
<!-- Forum&#45;&gt;ForumThread -->
<g id="edge122" class="edge"><title>Forum&#45;&gt;ForumThread</title>
<path fill="none" stroke="#700568" d="M862,-236.029C862,-224.599 862,-211.267 862,-199.66"/>
<ellipse fill="none" stroke="#700568" cx="862" cy="-240.382" rx="4" ry="4"/>
<polygon fill="#700568" stroke="#700568" points="862,-199.59 866.5,-189.59 862,-194.59 862,-189.59 862,-189.59 862,-189.59 862,-194.59 857.5,-189.59 862,-199.59 862,-199.59"/>
</g>
<!-- FolderEmail -->
<g id="node52" class="node"><title>FolderEmail</title>
<ellipse fill="none" stroke="black" cx="2462" cy="-443" rx="67.8823" ry="18.3848"/>
<text text-anchor="middle" x="2462" y="-439.4" font-family="Times Roman,serif" font-size="14.00">FolderEmail</text>
</g>
<!-- SiteSetting -->
<g id="node56" class="node"><title>SiteSetting</title>
<ellipse fill="none" stroke="black" cx="515" cy="-263" rx="65.9683" ry="18.3848"/>
<text text-anchor="middle" x="515" y="-259.4" font-family="Times Roman,serif" font-size="14.00">SiteSetting</text>
</g>
<!-- SiteSetting&#45;&gt;PromoConnection -->
<g id="edge128" class="edge"><title>SiteSetting&#45;&gt;PromoConnection</title>
<path fill="none" stroke="#16c0f9" d="M465.681,-245.813C420.88,-230.201 354.808,-207.176 307.813,-190.798"/>
<ellipse fill="none" stroke="#16c0f9" cx="469.682" cy="-247.207" rx="4.00001" ry="4.00001"/>
<polygon fill="#16c0f9" stroke="#16c0f9" points="307.532,-190.7 299.569,-183.16 302.81,-189.055 298.089,-187.41 298.089,-187.41 298.089,-187.41 302.81,-189.055 296.608,-191.659 307.532,-190.7 307.532,-190.7"/>
</g>
<!-- HomeSlide -->
<g id="node58" class="node"><title>HomeSlide</title>
<ellipse fill="none" stroke="black" cx="606" cy="-171" rx="62.9325" ry="18.3848"/>
<text text-anchor="middle" x="606" y="-167.4" font-family="Times Roman,serif" font-size="14.00">HomeSlide</text>
</g>
<!-- SiteSetting&#45;&gt;HomeSlide -->
<g id="edge126" class="edge"><title>SiteSetting&#45;&gt;HomeSlide</title>
<path fill="none" stroke="#922364" d="M538.902,-238.836C551.869,-225.726 567.884,-209.535 581.015,-196.26"/>
<ellipse fill="none" stroke="#922364" cx="535.792" cy="-241.98" rx="4.00002" ry="4.00002"/>
<polygon fill="#922364" stroke="#922364" points="581.336,-195.935 591.568,-191.99 584.852,-192.38 588.368,-188.825 588.368,-188.825 588.368,-188.825 584.852,-192.38 585.169,-185.661 581.336,-195.935 581.336,-195.935"/>
</g>
<!-- Promo -->
<g id="node57" class="node"><title>Promo</title>
<ellipse fill="none" stroke="black" cx="2591" cy="-443" rx="43.1335" ry="18.3848"/>
<text text-anchor="middle" x="2591" y="-439.4" font-family="Times Roman,serif" font-size="14.00">Promo</text>
</g>
</g>
</svg>
